<svg width="40" height="40" viewBox="0 0 40 40" fill="none" xmlns="http://www.w3.org/2000/svg">
<circle cx="20" cy="20" r="20" fill="#644DA4"/>
<path d="M10.7408 31.1111C10.7408 31.1111 8.88892 31.1111 8.88892 29.2592C8.88892 27.4074 10.7408 21.8518 20 21.8518C29.2593 21.8518 31.1111 27.4074 31.1111 29.2592C31.1111 31.1111 29.2593 31.1111 29.2593 31.1111H10.7408ZM20 20C21.4735 20 22.8865 19.4146 23.9284 18.3728C24.9703 17.3309 25.5556 15.9178 25.5556 14.4444C25.5556 12.971 24.9703 11.5579 23.9284 10.516C22.8865 9.47417 21.4735 8.88885 20 8.88885C18.5266 8.88885 17.1135 9.47417 16.0717 10.516C15.0298 11.5579 14.4445 12.971 14.4445 14.4444C14.4445 15.9178 15.0298 17.3309 16.0717 18.3728C17.1135 19.4146 18.5266 20 20 20Z" fill="#F4F4F5"/>
</svg>
