<svg width="31" height="29" viewBox="0 0 31 29" fill="none" xmlns="http://www.w3.org/2000/svg">
<g clip-path="url(#clip0_435_284)">
<path d="M1.77623 29C1.68293 28.9997 1.59303 28.9631 1.52375 28.8973C1.45447 28.8316 1.41069 28.7412 1.40079 28.6436V28.6423L4.95154e-05 13.6977L-0.00109863 13.6602C-0.00109863 13.4403 0.167679 13.2627 0.376642 13.2627H9.82935V29.0012L1.77623 29ZM5.63401 25.0548V25.056C5.63401 25.3669 5.72162 25.6709 5.88575 25.9294C6.04989 26.1879 6.28318 26.3894 6.55612 26.5084C6.82907 26.6274 7.12941 26.6585 7.41917 26.5978C7.70893 26.5372 7.97508 26.3875 8.18399 26.1676C8.39289 25.9478 8.53516 25.6677 8.59279 25.3627C8.65043 25.0578 8.62085 24.7417 8.50779 24.4544C8.39473 24.1672 8.20328 23.9216 7.95763 23.7489C7.71199 23.5762 7.42319 23.484 7.12775 23.484H7.12546C6.29994 23.484 5.63172 24.1872 5.63057 25.056L5.63401 25.0548ZM6.18512 15.3881C6.18512 15.6068 6.3539 15.7845 6.56286 15.7845H7.44005C7.53993 15.7845 7.63572 15.7427 7.70634 15.6684C7.77697 15.5941 7.81664 15.4933 7.81664 15.3881C7.81664 15.283 7.77697 15.1822 7.70634 15.1079C7.63572 15.0336 7.53993 14.9918 7.44005 14.9918H6.55598C6.45579 14.9918 6.35971 15.0337 6.28887 15.1082C6.21803 15.1828 6.17824 15.2839 6.17824 15.3893V15.393L6.18512 15.3881ZM2.04031 15.3881C2.04031 15.6068 2.20909 15.7845 2.4169 15.7845H5.29301C5.39289 15.7845 5.48868 15.7427 5.5593 15.6684C5.62993 15.5941 5.66961 15.4933 5.66961 15.3881C5.66961 15.283 5.62993 15.1822 5.5593 15.1079C5.48868 15.0336 5.39289 14.9918 5.29301 14.9918H2.41001C2.31013 14.9918 2.21435 15.0336 2.14372 15.1079C2.0731 15.1822 2.03342 15.283 2.03342 15.3881V15.3918L2.04031 15.3881ZM13.2922 26.732C13.0898 26.6601 12.8987 26.557 12.725 26.4263L12.7319 26.4311L12.6171 26.355C12.3496 26.1784 12.0855 25.9963 11.8248 25.8088L11.7089 25.723C11.5573 25.6082 11.4861 25.5575 11.4081 25.5623C11.1325 25.5683 10.8569 25.5708 10.5814 25.5744V14.5121L10.5665 13.5817C11.0843 13.2349 11.5619 12.905 11.7054 12.7793C11.9006 12.3661 12.0935 12.0205 12.307 11.6894L12.2875 11.7221C12.3851 11.5613 12.4827 11.4018 12.5723 11.2436L14.5517 7.74664C14.6435 7.5823 14.7434 7.41797 14.8433 7.25364C15.0098 6.99264 15.1866 6.68089 15.3485 6.35947L15.3761 6.30026C15.4667 6.10512 15.4984 5.88539 15.4668 5.67072L15.4679 5.67676L15.461 1.90676C15.5333 1.35818 15.8273 0.894179 16.2418 0.611429L16.2486 0.606596C16.6182 0.256328 17.0871 0.0439871 17.5828 0.00242904H17.5908L17.6632 0.0012207C18.0547 0.0012207 18.4244 0.0990957 18.7528 0.271887L18.739 0.264637C18.9583 0.375804 19.1454 0.494221 19.3211 0.627137L19.3096 0.618679L19.4313 0.703262C19.708 0.856721 19.9147 1.1153 20.0065 1.42826L20.0088 1.43672C20.2235 2.27772 20.4199 3.0426 20.6024 3.80989L20.6782 4.12285C20.7942 4.53368 20.894 5.0303 20.9583 5.53901L20.9641 5.58976C20.7678 7.49168 20.39 9.22684 19.8435 10.8798L19.8917 10.7131L28.7244 10.6998H28.7566C29.0242 10.6998 29.2887 10.7598 29.5326 10.8756C29.7764 10.9915 29.9941 11.1607 30.1711 11.3719C30.3481 11.583 30.4804 11.8315 30.5592 12.1006C30.638 12.3697 30.6614 12.6534 30.628 12.9328L30.6292 12.9231C30.6539 13.3453 30.5719 13.7668 30.3917 14.1448C30.2114 14.5228 29.9392 14.8438 29.6028 15.0752L29.5936 15.0812C29.9158 15.577 30.0665 16.1742 30.0207 16.7729V16.7644C30.0609 17.2389 29.9559 17.7144 29.721 18.1216C29.4862 18.5288 29.1337 18.8463 28.7152 19.0276L28.7015 19.0325C28.9583 19.5143 29.0775 20.064 29.0448 20.6154V20.6081C29.0697 21.0212 28.9884 21.4337 28.8094 21.8022C28.6304 22.1707 28.3603 22.4816 28.0275 22.7022L28.0183 22.7082C28.2528 23.2609 28.3417 23.8699 28.2755 24.4712L28.2766 24.4555V24.6826C28.2602 24.9803 28.1868 25.2713 28.061 25.5384C27.9352 25.8055 27.7594 26.0431 27.5443 26.237C27.3291 26.431 27.079 26.5772 26.8089 26.667C26.5388 26.7568 26.2543 26.7884 25.9723 26.7598L25.9803 26.761H20.8952L20.878 26.7622L20.8596 26.761H20.8608H14.0752C14.0166 26.761 13.9558 26.761 13.8915 26.7706C13.8134 26.7755 13.7308 26.7827 13.6458 26.7827H13.6286C13.5126 26.7828 13.3971 26.7666 13.2853 26.7344L13.2945 26.7368L13.2922 26.732ZM6.38605 25.056C6.38612 24.9544 6.40522 24.8538 6.44225 24.7599C6.47927 24.666 6.53351 24.5807 6.60185 24.5089C6.67019 24.4371 6.7513 24.3802 6.84055 24.3414C6.9298 24.3025 7.02544 24.2826 7.12201 24.2827C7.21859 24.2828 7.3142 24.3029 7.40339 24.3418C7.49258 24.3808 7.57361 24.4379 7.64184 24.5098C7.71008 24.5817 7.76418 24.6671 7.80107 24.761C7.83796 24.8549 7.8569 24.9556 7.85683 25.0572C7.85668 25.2625 7.77905 25.4593 7.64103 25.6043C7.50301 25.7493 7.3159 25.8307 7.12086 25.8306C6.92583 25.8304 6.73884 25.7487 6.60103 25.6034C6.46323 25.4582 6.3859 25.2613 6.38605 25.056Z" fill="#F5F5F5"/>
</g>
<defs>
<clipPath id="clip0_435_284">
<rect width="31" height="29" fill="white"/>
</clipPath>
</defs>
</svg>
