<svg width="42" height="40" viewBox="0 0 42 40" fill="none" xmlns="http://www.w3.org/2000/svg">
<path d="M38.4825 10.9117C38.4679 10.1966 38.4077 9.4831 38.3022 8.77501C38.1765 8.14518 37.9629 7.5342 37.667 6.95834C37.0192 5.74051 35.9808 4.75097 34.7025 4.13334C34.1017 3.85286 33.4644 3.64996 32.8072 3.53001C32.0581 3.42748 31.303 3.36904 30.5462 3.35501C30.226 3.34334 29.8112 3.33834 29.6187 3.33834L12.3848 3.33334C12.1923 3.33334 11.7775 3.33834 11.4572 3.35001C10.7064 3.36379 9.95723 3.42112 9.21375 3.52168C8.55243 3.64141 7.9109 3.84488 7.30625 4.12668C6.0276 4.74368 4.98861 5.73261 4.34 6.95001C4.04557 7.5222 3.83253 8.12921 3.7065 8.75501C3.59836 9.46849 3.53641 10.1876 3.521 10.9083C3.5105 11.2133 3.5035 11.6083 3.5035 11.7917L3.5 28.205C3.5 28.3883 3.50525 28.7833 3.5175 29.0883C3.53197 29.8034 3.59216 30.5169 3.69775 31.225C3.82349 31.8548 4.03714 32.4658 4.333 33.0417C4.98085 34.2594 6.01923 35.249 7.2975 35.8667C7.89832 36.147 8.53567 36.3499 9.19275 36.47C9.94192 36.5726 10.697 36.631 11.4538 36.645C11.774 36.6567 12.1887 36.6617 12.3812 36.6617L29.6152 36.665C29.8078 36.665 30.2225 36.66 30.5427 36.6483C31.2935 36.6345 32.0428 36.5772 32.7863 36.4767C33.4476 36.3569 34.0891 36.1534 34.6938 35.8717C35.9731 35.255 37.0127 34.266 37.6618 33.0483C37.9562 32.4762 38.1693 31.8692 38.2952 31.2433C38.4034 30.5299 38.4654 29.8107 38.4808 29.09C38.4912 28.785 38.4983 28.39 38.4983 28.2067L38.5 11.795C38.5 11.6117 38.4948 11.2167 38.4825 10.9117ZM21.3797 31.595H21.3745C19.2914 31.5946 17.2416 31.0973 15.4123 30.1483L8.79725 31.8L10.5683 25.645C9.19704 23.3789 8.64915 20.7452 9.00952 18.1523C9.36989 15.5594 10.6184 13.1522 12.5615 11.3039C14.5045 9.45556 17.0336 8.26938 19.7565 7.92925C22.4795 7.58913 25.2442 8.11406 27.622 9.42267C29.9998 10.7313 31.8579 12.7504 32.9081 15.1671C33.9584 17.5838 34.1422 20.2629 33.4309 22.7892C32.7197 25.3155 31.1532 27.5477 28.9744 29.1398C26.7955 30.7319 24.126 31.5949 21.3797 31.595Z" fill="#F4F4F5"/>
<path d="M21.385 9.83501C19.5319 9.83449 17.7125 10.3068 16.116 11.2028C14.5195 12.0988 13.2042 13.3858 12.3069 14.93C11.4096 16.4741 10.963 18.219 11.0136 19.9832C11.0643 21.7474 11.6103 23.4665 12.5948 24.9617L12.8415 25.335L11.7933 28.9783L15.7185 27.9983L16.0965 28.2117C17.6945 29.113 19.5174 29.5884 21.3745 29.5883H21.3798C24.1305 29.5888 26.7686 28.5485 28.714 26.6965C30.6593 24.8444 31.7525 22.3322 31.7529 19.7125C31.7534 17.0928 30.6611 14.5803 28.7165 12.7276C26.7718 10.8749 24.134 9.83379 21.3833 9.83334L21.385 9.83501ZM27.482 23.9517C27.2527 24.3125 26.9474 24.6241 26.5854 24.8671C26.2233 25.11 25.8125 25.279 25.3785 25.3633C24.7234 25.4704 24.0511 25.4304 23.415 25.2467C22.8118 25.0676 22.2189 24.8585 21.6388 24.62C19.4858 23.591 17.6507 22.0466 16.3135 20.1383C15.5841 19.255 15.1413 18.188 15.0395 17.0683C15.0311 16.6062 15.1239 16.1475 15.3119 15.7213C15.4999 15.2952 15.7791 14.9111 16.1315 14.5933C16.2357 14.4802 16.3633 14.3887 16.5064 14.3248C16.6494 14.2608 16.8048 14.2257 16.9628 14.2217C17.1693 14.2217 17.3775 14.2217 17.5595 14.2317C17.752 14.24 18.0075 14.1617 18.2595 14.7417C18.522 15.335 19.145 16.7967 19.222 16.945C19.2715 17.0228 19.2998 17.111 19.3043 17.2018C19.3089 17.2926 19.2897 17.3831 19.2483 17.465C19.1698 17.6433 19.0649 17.81 18.9368 17.96C18.7793 18.1333 18.6095 18.3467 18.4695 18.48C18.312 18.6283 18.151 18.7883 18.3313 19.085C18.7995 19.8484 19.3839 20.5415 20.0655 21.1417C20.8052 21.7679 21.6538 22.2665 22.5733 22.615C22.8848 22.765 23.0668 22.7383 23.2488 22.54C23.4308 22.3417 24.0275 21.6733 24.2358 21.3767C24.444 21.08 24.6505 21.13 24.9358 21.2283C25.221 21.3267 26.7558 22.045 27.0673 22.195C27.3788 22.345 27.587 22.4167 27.664 22.54C27.7494 23.0174 27.6861 23.5081 27.482 23.9517Z" fill="#F4F4F5"/>
</svg>
