<svg width="54" height="54" viewBox="0 0 54 54" fill="none" xmlns="http://www.w3.org/2000/svg">
<circle cx="27" cy="27" r="27" fill="#581578"/>
<path d="M14.5 42C14.5 42 12 42 12 39.5C12 37 14.5 29.5 27 29.5C39.5 29.5 42 37 42 39.5C42 42 39.5 42 39.5 42H14.5ZM27 27C28.9891 27 30.8968 26.2098 32.3033 24.8033C33.7098 23.3968 34.5 21.4891 34.5 19.5C34.5 17.5109 33.7098 15.6032 32.3033 14.1967C30.8968 12.7902 28.9891 12 27 12C25.0109 12 23.1032 12.7902 21.6967 14.1967C20.2902 15.6032 19.5 17.5109 19.5 19.5C19.5 21.4891 20.2902 23.3968 21.6967 24.8033C23.1032 26.2098 25.0109 27 27 27Z" fill="#F4F4F5"/>
</svg>
