<svg width="30" height="30" viewBox="0 0 30 30" fill="none" xmlns="http://www.w3.org/2000/svg">
<circle cx="15" cy="15" r="15" fill="#581578"/>
<path d="M8.05564 23.3334C8.05564 23.3334 6.66675 23.3334 6.66675 21.9445C6.66675 20.5556 8.05564 16.3889 15.0001 16.3889C21.9445 16.3889 23.3334 20.5556 23.3334 21.9445C23.3334 23.3334 21.9445 23.3334 21.9445 23.3334H8.05564ZM15.0001 15C16.1051 15 17.165 14.561 17.9464 13.7796C18.7278 12.9982 19.1667 11.9384 19.1667 10.8334C19.1667 9.72828 18.7278 8.66848 17.9464 7.88708C17.165 7.10567 16.1051 6.66669 15.0001 6.66669C13.895 6.66669 12.8352 7.10567 12.0538 7.88708C11.2724 8.66848 10.8334 9.72828 10.8334 10.8334C10.8334 11.9384 11.2724 12.9982 12.0538 13.7796C12.8352 14.561 13.895 15 15.0001 15Z" fill="#F4F4F5"/>
</svg>
