<svg width="41" height="41" viewBox="0 0 41 41" fill="none" xmlns="http://www.w3.org/2000/svg">
<path d="M34.1666 30.75H30.75V15.8021L20.5 22.2083L10.25 15.8021V30.75H6.83329V10.25H8.88329L20.5 17.5104L32.1166 10.25H34.1666M34.1666 6.83334H6.83329C4.93704 6.83334 3.41663 8.35376 3.41663 10.25V30.75C3.41663 31.6562 3.7766 32.5252 4.41734 33.166C5.05809 33.8067 5.92714 34.1667 6.83329 34.1667H34.1666C35.0728 34.1667 35.9418 33.8067 36.5826 33.166C37.2233 32.5252 37.5833 31.6562 37.5833 30.75V10.25C37.5833 9.34385 37.2233 8.47481 36.5826 7.83406C35.9418 7.19331 35.0728 6.83334 34.1666 6.83334Z" fill="#F4F4F5"/>
</svg>
